<svg width="28px" height="28px" style="transform: rotate(360deg) scaleX(-1);" version="1.1" viewBox="0 0 500 500" xmlns="http://www.w3.org/2000/svg" xmlns:xlink="http://www.w3.org/1999/xlink">
 <g>
  <path d="m502.39 203.8h-152.39c-5.4453 0-10.477-2.9062-13.199-7.6211-2.7227-4.7148-2.7227-10.527 0-15.242 2.7227-4.7148 7.7539-7.6211 13.199-7.6211h152.39c4.0742-0.054687 8.0039 1.5273 10.906 4.3906 2.9062 2.8633 4.5391 6.7695 4.5391 10.848s-1.6328 7.9844-4.5391 10.852c-2.9023 2.8633-6.832 4.4414-10.906 4.3867z"/>
  <path d="m502.39 386.68h-304.79c-4.0742 0.054687-8.0039-1.5273-10.906-4.3906-2.9062-2.8633-4.5391-6.7695-4.5391-10.848s1.6328-7.9844 4.5391-10.852c2.9023-2.8633 6.832-4.4414 10.906-4.3867h304.79c4.0742-0.054687 8.0039 1.5234 10.906 4.3867 2.9062 2.8672 4.5391 6.7734 4.5391 10.852s-1.6328 7.9844-4.5391 10.848c-2.9023 2.8633-6.832 4.4453-10.906 4.3906z"/>
  <path d="m502.39 295.24h-228.59c-5.4453 0-10.477-2.9062-13.199-7.6211-2.7227-4.7148-2.7227-10.527 0-15.242 2.7227-4.7148 7.7539-7.6211 13.199-7.6211h228.59c5.4414 0 10.473 2.9062 13.195 7.6211s2.7227 10.527 0 15.242-7.7539 7.6211-13.195 7.6211z"/>
 </g>
</svg>
